<?xml version="1.0" encoding="utf-8"?>
<!DOCTYPE svg PUBLIC "-//W3C//DTD SVG 1.1//EN" "http://www.w3.org/Graphics/SVG/1.1/DTD/svg11.dtd">
<svg version="1.1" id="layer_1" xmlns="http://www.w3.org/2000/svg" xmlns:xlink="http://www.w3.org/1999/xlink" x="0px" y="0px"
	 width="60px" height="60px" viewBox="0 0 60 60" enable-background="new 0 0 60 60" xml:space="preserve">
<g>
	<path fill="#009EE7" d="M31.716,45.012c-5.332-5.279-10.665-10.559-15.997-15.838c0.212,0.21,14.174-13.846,15.972-15.626
		c0.459-0.454-1.409-0.253-1.762,0.097c-5.346,5.293-10.692,10.586-16.038,15.879c-0.092,0.091-0.123,0.198-0.026,0.294
		c5.346,5.293,10.692,10.586,16.038,15.879C30.291,46.08,32.078,45.371,31.716,45.012L31.716,45.012z"/>
	<path fill="#009EE7" d="M55.824,29.586C55.452,44.322,43.97,56.03,28.988,55.652c-13.572-0.343-23.794-12.09-24.78-25.056
		C3.052,15.394,16.21,2.925,31.012,3.299c14.124,0.357,24.474,12.945,24.815,26.435c0.017,0.67,1.952,0.273,1.932-0.518
		C57.362,13.512,44.581,1.741,28.988,2.135C14.191,2.509,2.605,15.104,2.238,29.586C1.839,45.368,15.89,57.198,31.012,56.816
		c14.797-0.374,26.383-12.969,26.749-27.451C57.783,28.512,55.842,28.897,55.824,29.586z"/>
	<path fill="#009EE7" d="M15.226,29.969c10.095,0,20.19,0,30.285,0c0.423,0,2.208-0.819,1.245-0.819c-10.095,0-20.19,0-30.285,0
		C16.048,29.15,14.263,29.969,15.226,29.969L15.226,29.969z"/>
</g>
</svg>
